# xmcd
#
# Track frame offsets:
#	150
#	21864
#	37301
#	54726
#	75282
#	94038
#	110384
#	127361
#	144938
#	163284
#	179659
#	195126
#	214745
#	240161
#	256009
#	275056
#
# Disc length: 3892 seconds
#
# Revision: 0
# Processed by: cddbd v1.5.1PL2 Copyright (c) Steve Scherf et al.
# Submitted via: audiograbber 1.83.01
#
DISCID=df0f3210
DTITLE=Sound Schoice - SC8916
DYEAR=1900
DGENRE=Karaoke
TTITLE0=Lonestar - Class Reunion (That Used To Be Us)
TTITLE1=Adkins, Trace - Rough And Ready
TTITLE2=Wilson, Gretchen - Holdin You
TTITLE3=Rascal Flatts - Skin
TTITLE4=Big and Rich - Six Foot Town
TTITLE5=Chesney, Kenny - Old Blue Chair
TTITLE6=McGraw, Tim - Walk Like A Man
TTITLE7=Womack, Lee Ann - I May Hate Myself In The Morning
TTITLE8=Elam, Katrina - I Want A Cowboy
TTITLE9=Adkins, Trace - Songs About Me
TTITLE10=Roberts, Julie - Wake Up Older
TTITLE11=Sugarland - Baby Girl
TTITLE12=Chesney, Kenny - Anything But Mine
TTITLE13=Messina, Jo Dee - My Giva A Damn's Busted
TTITLE14=McGraw, Tim - Do You Want Fries With That
TTITLE15=Chesney, Kenny - Old Blue Chair (Ocean Mix)
EXTD=
EXTT0=
EXTT1=
EXTT2=
EXTT3=
EXTT4=
EXTT5=
EXTT6=
EXTT7=
EXTT8=
EXTT9=
EXTT10=
EXTT11=
EXTT12=
EXTT13=
EXTT14=
EXTT15=
PLAYORDER=
